<?xml version="1.0"?>
<svg xmlns="http://www.w3.org/2000/svg" id="Layer_1" data-name="Layer 1" viewBox="0 0 659.74 686" width="659.74" height="686" x="0" y="0"><defs><style>.cls-1{fill:#e5d2d1;}.cls-2{fill:#f4a989;}.cls-3{fill:#e5977f;}.cls-4{fill:#b54d4e;}.cls-5{fill:#9b353a;}.cls-6{fill:#fff;}.cls-7{fill:#1d2633;}.cls-8{fill:#27333d;}.cls-9{fill:#d3c7c5;}.cls-10{fill:#34424c;}</style></defs><title>Background mobile</title><g id="stain"><path class="cls-1" d="M688.25,238.78c-15.54,48.61-83.15,87.52-59.7,152.38s69.07,60.54,99.14,94.46,33,105.64,79.11,143.71,99.64-5.74,144.78,9.12,58,49.72,108.15,42.64,61.52-84.89,89.9-107.18,98.56-19.83,113.59-68.92c14.28-46.63-16.85-98.6-33.25-151.37s30.76-109.63-18.15-189.38c-37.49-61.12-100.06-46-139.71-64.48S1042,18.28,981.94,6.47C927-4.31,883.42,45,848,54.28s-95-3.16-134.22,30C669.72,121.57,700.83,199.43,688.25,238.78Z" transform="translate(-607.13 -4.59)"/><path class="cls-1" d="M898.74,35C871.23,57.09,833.67,53,801,49.46c-17.57-1.9-35.45-3.66-53-1a90.76,90.76,0,0,0-42.08,18.14A92.37,92.37,0,0,0,678,102.45c-6.63,15.23-8.2,32-8.91,48.38-.69,15.73-.68,31.58-3.57,47.12-2.69,14.47-7.76,28.38-13.69,41.82-12.17,27.62-28.28,53.69-36.76,82.83a132.29,132.29,0,0,0,6.2,91.25,128.7,128.7,0,0,0,27.33,39.47c11.65,11.4,25.51,20.13,38.79,29.45s25.68,19.39,35.37,32.47C732.83,528.89,740,544.4,747,559.83c12.63,28.11,25.93,59.62,53.39,76.44,30.38,18.61,67.67,10.83,98.77-1.49,8.54-3.39,16.93-7.14,25.32-10.89,1.4-.62,2.1,1.66.71,2.28-31.85,14.24-66.64,29.28-102.24,21.59-31.47-6.8-51.54-32.4-65.47-59.72-15.57-30.56-25.74-64.71-52.07-88.29-12.51-11.2-27-19.88-40.48-29.76-13-9.54-24.66-20.49-33.87-33.83a135.28,135.28,0,0,1-23.31-88.74c2.92-30.45,17.28-58,30.65-85,6.9-13.89,13.71-27.9,18.76-42.6a168.58,168.58,0,0,0,8.63-46.36c.88-16.43.61-33,3.42-49.25a94.26,94.26,0,0,1,52-69.93c14.76-7.16,31-9.68,47.27-9.58,35.23.23,71.35,11.43,106,.47a70.58,70.58,0,0,0,23-12.17c1.2-1,2.47,1.06,1.29,2Z" transform="translate(-607.13 -4.59)"/><path class="cls-1" d="M921.94,627.61c-1.51-.15-3-.23-4.57-.26s-1.46,2.11-.15,2.36l.23,0a55.83,55.83,0,0,1,7.85.69,67.41,67.41,0,0,1,18.76,6.09h0c14.07,6.82,26.22,17.81,37.46,28.46,8.86,8.39,17.63,16.95,27.53,24.13.69.5,1.39,1,2.09,1.48h4.28a141.6,141.6,0,0,1-14.2-10.72c-9.33-8-17.89-16.75-27-24.94a149.07,149.07,0,0,0-20.54-15.76h0C944,633.12,933.37,628.7,921.94,627.61Z" transform="translate(-607.13 -4.59)"/><path class="cls-1" d="M1111.77,690.59c12.41-12.66,19.24-30.09,25.79-46.36,7.8-19.39,17.11-40.64,36.22-51.32,1.35-.76,0-2.77-1.28-2a53.92,53.92,0,0,0-6.5,4.27c-17.06,13.15-24.94,34.17-32.77,53.46-6,14.92-13,30.37-24.52,41.53-.16.16-.31.3-.47.44h3.53Z" transform="translate(-607.13 -4.59)"/><path class="cls-1" d="M955.63,7.79c33.55-9.49,71,2.65,92.94,29.67,6.76,8.33,12.47,17.48,20.23,25a85.7,85.7,0,0,0,24.65,16.62c18.42,8.2,38.9,9.21,58.37,13.45a119.58,119.58,0,0,1,46.86,21.3,125.89,125.89,0,0,1,33.33,38,117.82,117.82,0,0,1,15.16,47.39c1.74,19.09-1.35,38.22-5.43,56.81-4.2,19.19-9.53,38.18-12.14,57.69a172.42,172.42,0,0,0,3.59,65c1.29,5.12,2.83,10.17,4.58,15.15.5,1.45-1.78,2.16-2.29.71A174.46,174.46,0,0,1,1225.7,332c.57-19.63,4.89-38.81,9.39-57.85,4.44-18.74,9.09-37.63,10-57a117,117,0,0,0-8.76-51.24c-13.14-31.27-39.89-57.17-72.31-67.7-18.56-6-38.29-6.81-57.07-11.93a90.91,90.91,0,0,1-47.34-30.41c-6.51-8-12-16.88-19.41-24.18a84.49,84.49,0,0,0-20.94-15A88.59,88.59,0,0,0,969,7.52a80.22,80.22,0,0,0-12.68,2.55,1.19,1.19,0,0,1-.71-2.28Z" transform="translate(-607.13 -4.59)"/></g><g id="hand"><path class="cls-2" d="M1111.77,690.59h149.71a31.06,31.06,0,0,0,1.92-13.07c-.23-3.54-40.51-67.49-73.66-120.91-20.37-32.8-38-61.63-42.13-70.05-.07-.14-.13-.27-.19-.41l-.21-.47-.14-.3c-.15-.36-.27-.68-.37-.95s-.11-.34-.16-.51c0,0,0,0,0,0a.57.57,0,0,1,0-.14.36.36,0,0,1,0-.11l-.06-.2c0-.09-.05-.18-.07-.26s-.08-.27-.1-.36,0-.14,0-.17c-3.81-15.86-10.24-31.63-5.91-66.33s-18.46-79.58-28.21-103c-4.68-11.25-13.38-35.89-21.18-58.51-1.65-4.79-3.26-9.48-4.78-13.94l-.54-1.58c-.46-1.35-.91-2.67-1.36-4l-.09-.27c-.52-1.52-1-3-1.51-4.45l-.4-1.17-.12-.36c-.13-.4-.26-.78-.4-1.17l-1.44-4.27L1079,220l-.46-1.35c-.29-.88-.57-1.71-.84-2.5l-.38-1.14-.77-2.29c-.06-.17-.12-.34-.17-.51s-.11-.32-.16-.48l-.64-1.89-.16-.5a1.61,1.61,0,0,1-.09-.26.56.56,0,0,1,0-.12c-.07-.19-.12-.36-.17-.5L1075,208s-23.36,4.65-23.09,37.51c.19,23.1,10.62,66.86,3.93,84v0a0,0,0,0,1,0,0c-.07.18-.14.34-.23.52a3.87,3.87,0,0,1-.25.55c-.13.28-.26.54-.4.79s-.28.51-.43.75-.31.47-.47.69-.33.43-.5.64-.35.39-.54.58a3.61,3.61,0,0,1-.35.33l-.27.23a6,6,0,0,1-.66.5,7.45,7.45,0,0,1-.71.43q-.36.19-.75.36a9.28,9.28,0,0,1-3.63.68,16.55,16.55,0,0,1-5-.89c-1-.31-2-.68-3-1.11l-1-.45-1.09-.49-.51-.24c-2.14-1-4.42-2.26-6.81-3.69l-1.47-.89-1.57-1-1.37-.88q-2.15-1.39-4.39-3c-.43-.29-.86-.59-1.28-.9-.77-.54-1.55-1.1-2.33-1.68l-2.1-1.54-2.21-1.66-2.09-1.6-.08-.07c-1-.79-2.06-1.59-3.1-2.42l-2.41-1.91-2.09-1.69q-3.51-2.86-7.15-5.93l-2.38-2-.32-.28L991,300.74l-.25-.21-1.59-1.38q-2-1.75-4.13-3.59l-1.62-1.42c-11.29-9.93-23.12-20.81-34.92-31.78l-4.36-4.06c-9.37-8.7-18.68-17.39-27.64-25.62-1.85-1.71-3.68-3.38-5.5-5,0,0,0,0,0,0-5.66-5.16-11.16-10.08-16.4-14.65Q890,209,885.9,205.65c-1-.82-2-1.62-2.94-2.39L881.41,202l-2.22-1.75c-1-.82-2.07-1.6-3.08-2.36-.61-.48-1.21-.92-1.81-1.36q-4.34-3.18-8.15-5.66l-1.08-.69c-.44-.28-.87-.55-1.29-.8l-1.21-.74c-1.11-.66-2.18-1.26-3.21-1.81l-1-.52c-.33-.17-.65-.34-1-.49l-.76-.37c-.53-.26-1-.5-1.55-.71l-.64-.28c-.75-.32-1.47-.6-2.18-.85l-.7-.24-.71-.23a.64.64,0,0,0-.17,0c-.26-.09-.52-.16-.78-.23s-.63-.17-.93-.23-.73-.16-1.09-.22l-.37-.06c-.45-.07-.89-.12-1.31-.16a3.11,3.11,0,0,0-.43,0l-.77,0a9.82,9.82,0,0,0-5,1.24c-.2.12-.39.25-.58.38h0A9.13,9.13,0,0,0,838,185a13.84,13.84,0,0,0-2.63,4s0,0,0,0c-3.38,8.29,2.78,21.82,35,54.05,28.85,28.84,77.07,80.67,71.55,82.6h0l-.09,0h-.06c-6.23.86-77.12-43.19-108.68-63.94-1.55-1-3.09-2-4.6-3l-1.12-.72-1.13-.7L824,256c-1.42-.88-2.81-1.71-4.17-2.52q-2.76-1.62-5.39-3.09l-1-.57-.88-.48-.47-.25-.74-.4c-1.12-.6-2.22-1.18-3.29-1.73l-1.27-.65c-.85-.43-1.68-.84-2.5-1.23l-1.22-.59c-2.2-1.05-4.31-2-6.33-2.81q-1.68-.7-3.27-1.29l-.82-.31-.75-.26-.62-.22c-.49-.17-1-.33-1.44-.48l-.63-.2-.32-.09c-1.16-.36-2.27-.67-3.34-.93l-.24-.06-.38-.09-.59-.13-.94-.2-1.06-.19-.28,0c-.38-.07-.75-.12-1.11-.16l-.27,0-.54-.06-.24,0c-.41,0-.82-.07-1.21-.08l-.55,0h-1l-.48,0-.53,0-.25,0c-.23,0-.45,0-.67.08l-.32,0-.34.06a0,0,0,0,0,0,0,0,0,0,0,1,0,0h-.06a8.31,8.31,0,0,0-4.93,2.66,7.9,7.9,0,0,0-1.88,4.71v.06c-.59,10.85,18.57,28.27,48.37,50.15,49,36,95.18,69.77,91.94,72.41l-.06,0-.2.11a.19.19,0,0,1-.12,0l-.13,0-.21,0-.21,0a3.69,3.69,0,0,1-.73,0l-.5-.07-.64-.12c-11.6-2.48-54.19-26.38-94-52.13l-1.9-1.23q-3.79-2.48-7.44-4.66l-1.52-.9-1.74-1c-1.15-.67-2.28-1.31-3.4-1.92s-2-1.08-2.95-1.59q-2.19-1.15-4.29-2.15c-.46-.23-.93-.45-1.39-.66s-.91-.43-1.36-.63q-2.49-1.12-4.83-2l-1.54-.58q-1.31-.46-2.55-.87c-.54-.17-1.07-.34-1.6-.48s-.75-.22-1.12-.31-.6-.16-.9-.23c-.88-.22-1.73-.4-2.56-.54l-1-.16c-.57-.09-1.12-.16-1.65-.2l-.76-.06a19.06,19.06,0,0,0-2.5,0c-.34,0-.67,0-1,.08s-.65.08-1,.13a11.6,11.6,0,0,0-1.93.49,4.76,4.76,0,0,0-.53.19l-.42.19h0a4,4,0,0,0-.47.22,4.31,4.31,0,0,0-.47.26.26.26,0,0,0-.11.07l-.1.06h-.05a9.07,9.07,0,0,0-3.22,3.52,10.55,10.55,0,0,0-1.16,3.7h0c-1.29,11.23,15.76,25,37.07,39.86,47.67,33.16,106,71,104.85,72.89a.14.14,0,0,1,0,.06.41.41,0,0,1,0,.09l0,0-.12.14-.15.15a2.38,2.38,0,0,1-.55.36l-.29.13-.32.1-.42.1-.46.07a9.11,9.11,0,0,1-1.83,0l-.57,0q-.81-.07-1.74-.24l-.57-.11c-.42-.08-.86-.17-1.31-.28l-.68-.16-.71-.18-.89-.24c-1.05-.29-2.16-.62-3.34-1l-1.2-.4c-2.95-1-6.26-2.24-9.86-3.71l-1.87-.77c-.72-.29-1.45-.6-2.18-.91l-2.11-.9-2.34-1-1.39-.61-1.72-.76-.06,0-1.7-.77c-.71-.31-1.43-.64-2.15-1l-3.16-1.44c-6.81-3.13-14.14-6.63-21.78-10.34-24.85-12.07-44.35-20.79-52.58-15.49h0a3.62,3.62,0,0,0-.32.22,8.11,8.11,0,0,0-2.64,3.24,7.06,7.06,0,0,0-.56,1.7s0,0,0,0c-2.1,10.13,16.13,24.77,42,40.13,30.93,18.34,45.31,23.76,74.65,39.5,15.37,8.24,138.92,65.09,157.43,91.26,1.74,2.47,26.8,59.85,47.21,106.28,4.85,11.06,9.45,21.5,13.4,30.42.07.15.13.3.2.44Z" transform="translate(-607.13 -4.59)"/><path class="cls-3" d="M1235.55,690.59h25.93a31.06,31.06,0,0,0,1.92-13.07c-.23-3.54-40.51-67.49-73.66-120.91-20.37-32.8-38-61.63-42.13-70.05-.07-.14-.13-.27-.19-.41l-.21-.47c-.42-1-.72-1.93-.89-2.49,0-.15-.08-.27-.1-.36s0-.14,0-.17c-3.81-15.86-10.24-31.63-5.91-66.33s-18.46-79.58-28.21-103c-4.68-11.25-13.38-35.89-21.18-58.51-1.65-4.79-3.26-9.48-4.78-13.94l-.54-1.58c-1.85-5.4-3.55-10.42-5-14.79-.09-.26-.18-.52-.26-.77l0-.1L1079,220l-.46-1.35c-.29-.88-.57-1.71-.84-2.5l-.38-1.14-.77-2.29c-.06-.17-.12-.34-.17-.51s-.11-.32-.16-.48l-.64-1.89-.16-.5a1.61,1.61,0,0,1-.09-.26c0-.09-.06-.16-.08-.24l-.13-.38s-.58,2.51-.07,8.89c0,.19,0,.38.05.58q.08.89.18,1.89v0l0,.18a5.43,5.43,0,0,0,.06.55c.06.52.13,1.06.2,1.63s.12.91.19,1.39c0,.12,0,.24,0,.36l.06.38c.07.43.13.87.21,1.32,0,.27.09.54.13.81.23,1.37.49,2.83.8,4.39.06.31.12.63.19.95.14.73.3,1.48.47,2.25.09.43.18.87.29,1.32,0,.27.11.54.18.82s.13.55.19.82c.26,1.11.53,2.27.82,3.46.15.6.3,1.21.46,1.82.31,1.23.64,2.5,1,3.82.18.66.36,1.33.55,2s.38,1.37.58,2.07.4,1.4.61,2.12c.11.38.22.76.34,1.15l.33,1.1c.11.37.22.75.34,1.12.83,2.74,1.73,5.62,2.73,8.65,14,42.69,40.23,103.85,43.3,132.36,3.36,31.15-7.31,47,1.22,79.91,2.84,11,19.34,46,39.5,86.54C1191.86,606.86,1217.81,657,1235.55,690.59Z" transform="translate(-607.13 -4.59)"/><path class="cls-3" d="M1055.85,329.49c-1.23,3.13-3,5.37-5.58,6.43h0c-2.26.94-5.11.94-8.67-.21-30.5-9.8-99.06-80.92-147-122.72-29-25.28-46.33-34.43-54.57-29.6,0,0,16.64-1.24,47.58,29.49s120.75,112.41,133.21,120.18C1045.32,348.37,1055.21,339.84,1055.85,329.49Z" transform="translate(-607.13 -4.59)"/><path class="cls-3" d="M941.78,325.72c-6.24.86-77.13-43.2-108.68-63.94-27.46-18.06-48.47-26.69-58.64-24.7,2.09.36,24,4.47,55.68,27,33.37,23.76,75.2,49.11,89.77,56.4C933.25,327.2,940.62,326,941.78,325.72Z" transform="translate(-607.13 -4.59)"/><path class="cls-3" d="M908,367.09c-.44.35-1.39.37-2.79.06-11.61-2.49-54.19-26.38-94-52.13-.63-.42-1.27-.82-1.9-1.23-23.27-15.13-42.53-22.7-51.1-17.29h0s8.79-3.54,43.77,18.32,70.82,42.43,83.5,48.16C897.65,368.52,906.78,368.63,908,367.09Z" transform="translate(-607.13 -4.59)"/><path class="cls-3" d="M895.29,416.93c-4.7,4.14-32-7.95-65.2-24.08-24.85-12.07-44.35-20.8-52.57-15.49h0s10.6-.43,36.73,12.24,50.47,24.46,63.84,27.88C890.05,420.54,894.15,418,895.29,416.93Z" transform="translate(-607.13 -4.59)"/><path class="cls-4" d="M836.93,185.41c7-8.13,31.85,10.6,32.12,15.45s-10,17.89-14.33,16.82C849.81,216.45,829.49,194.09,836.93,185.41Z" transform="translate(-607.13 -4.59)"/><path class="cls-4" d="M1083.4,255.72a61,61,0,0,0,7.48-.95c-7.74-22.47-14.6-42.94-15.72-46.28-1.66,1.71-10.44,11.43-9.61,24.73,1,15.23,3.91,19,7.14,21C1075.2,255.79,1079.57,256,1083.4,255.72Z" transform="translate(-607.13 -4.59)"/><path class="cls-5" d="M1083.4,255.72a61,61,0,0,0,7.48-.95c-7.74-22.47-14.6-42.94-15.72-46.28C1075.16,208.49,1072.52,219.86,1083.4,255.72Z" transform="translate(-607.13 -4.59)"/><path class="cls-4" d="M768.44,240.14c5.09-9.42,33.45,5.33,34.74,10s-8,17.93-12.44,17.78C785.68,267.77,763,250.19,768.44,240.14Z" transform="translate(-607.13 -4.59)"/><path class="cls-4" d="M754.53,299.2c5.09-9.41,33.45,5.33,34.74,10s-8,17.93-12.44,17.79C771.77,326.83,749.09,309.25,754.53,299.2Z" transform="translate(-607.13 -4.59)"/><path class="cls-4" d="M774.28,379.68c3-6.67,24.92,2.89,26,6s-5.21,12.94-8.22,13.07C788.63,398.91,771.09,386.8,774.28,379.68Z" transform="translate(-607.13 -4.59)"/></g><g id="pulse_oximeter" data-name="pulse oximeter"><path class="cls-6" d="M843.54,269.34,735.69,160.15l77.7-76.75L921.24,192.59a54.61,54.61,0,0,1-.47,77.23h0A54.61,54.61,0,0,1,843.54,269.34Z" transform="translate(-607.13 -4.59)"/><rect class="cls-7" x="770.94" y="144.9" width="129.6" height="79.22" transform="translate(-227.41 -544.34) rotate(45.35)"/><rect class="cls-8" x="765.89" y="161.34" width="124.1" height="54.04" transform="translate(-227 -537.63) rotate(45.35)"/><path class="cls-6" d="M804.12,166.57c.32-.32-1.11-2.25-3.19-4.31s-4-3.47-4.34-3.15,1.11,2.25,3.19,4.31S803.8,166.89,804.12,166.57Z" transform="translate(-607.13 -4.59)"/><path class="cls-6" d="M811.49,159.14c.32-.33-1.11-2.26-3.19-4.32s-4-3.47-4.34-3.15,1.11,2.25,3.19,4.31S811.17,159.46,811.49,159.14Z" transform="translate(-607.13 -4.59)"/><path class="cls-6" d="M819,151.6c.31-.32-1.11-2.25-3.2-4.31s-4-3.48-4.34-3.15,1.11,2.25,3.19,4.31S818.64,151.92,819,151.6Z" transform="translate(-607.13 -4.59)"/><path class="cls-6" d="M796.59,159.11c.32.32,2.25-1.11,4.31-3.19s3.47-4,3.15-4.35-2.25,1.11-4.31,3.19S796.27,158.79,796.59,159.11Z" transform="translate(-607.13 -4.59)"/><path class="cls-6" d="M804.12,166.57c.32.32,2.25-1.11,4.32-3.19s3.47-4,3.15-4.34-2.26,1.11-4.32,3.19S803.8,166.25,804.12,166.57Z" transform="translate(-607.13 -4.59)"/><path class="cls-6" d="M811.49,159.14c.32.31,2.25-1.12,4.31-3.2s3.48-4,3.16-4.34-2.26,1.11-4.32,3.19S811.17,158.82,811.49,159.14Z" transform="translate(-607.13 -4.59)"/><path class="cls-6" d="M816.21,178.46c.32-.32-1.11-2.25-3.19-4.32s-4-3.47-4.34-3.15,1.11,2.26,3.19,4.32S815.9,178.78,816.21,178.46Z" transform="translate(-607.13 -4.59)"/><path class="cls-6" d="M823.58,171c.32-.32-1.11-2.25-3.19-4.31s-4-3.47-4.34-3.15,1.11,2.25,3.19,4.31S823.27,171.34,823.58,171Z" transform="translate(-607.13 -4.59)"/><path class="cls-6" d="M831.05,163.49c.32-.32-1.11-2.26-3.19-4.32s-4-3.47-4.35-3.15,1.11,2.25,3.2,4.32S830.73,163.81,831.05,163.49Z" transform="translate(-607.13 -4.59)"/><path class="cls-6" d="M808.68,171c.32.32,2.25-1.11,4.31-3.19s3.48-4,3.15-4.34-2.25,1.11-4.31,3.19S808.36,170.68,808.68,171Z" transform="translate(-607.13 -4.59)"/><path class="cls-6" d="M816.21,178.46c.33.32,2.26-1.11,4.32-3.19s3.47-4,3.15-4.35-2.25,1.12-4.32,3.2S815.89,178.14,816.21,178.46Z" transform="translate(-607.13 -4.59)"/><path class="cls-6" d="M823.58,171c.32.32,2.26-1.11,4.32-3.19s3.47-4,3.15-4.34-2.25,1.11-4.32,3.19S823.26,170.7,823.58,171Z" transform="translate(-607.13 -4.59)"/><path class="cls-6" d="M816.05,163.56c.32.31,2.25-1.11,4.31-3.19s3.48-4,3.15-4.35-2.25,1.11-4.31,3.19S815.73,163.24,816.05,163.56Z" transform="translate(-607.13 -4.59)"/><path class="cls-6" d="M848.63,212.6c.36-.36-1.24-2.52-3.56-4.82s-4.5-3.88-4.85-3.52,1.24,2.52,3.56,4.82S848.28,213,848.63,212.6Z" transform="translate(-607.13 -4.59)"/><path class="cls-6" d="M852.43,201.31c-.48-.16-1.73,2.21-2.81,5.3s-1.55,5.73-1.08,5.9,1.74-2.21,2.81-5.3S852.91,201.48,852.43,201.31Z" transform="translate(-607.13 -4.59)"/><path class="cls-6" d="M856.31,190.16c-.48-.17-1.74,2.2-2.81,5.29s-1.56,5.73-1.08,5.9,1.73-2.21,2.81-5.3S856.79,190.32,856.31,190.16Z" transform="translate(-607.13 -4.59)"/><path class="cls-6" d="M857.72,221.58c.31-.32-1.11-2.25-3.19-4.31s-4-3.47-4.35-3.15,1.11,2.25,3.19,4.31S857.4,221.9,857.72,221.58Z" transform="translate(-607.13 -4.59)"/><path class="cls-6" d="M865.09,214.14c.31-.32-1.11-2.25-3.2-4.31s-4-3.47-4.34-3.15,1.11,2.25,3.19,4.31S864.77,214.47,865.09,214.14Z" transform="translate(-607.13 -4.59)"/><path class="cls-6" d="M872.55,206.61c.32-.32-1.11-2.25-3.19-4.31s-4-3.48-4.34-3.16,1.11,2.26,3.19,4.32S872.23,206.93,872.55,206.61Z" transform="translate(-607.13 -4.59)"/><path class="cls-6" d="M857.72,221.58c.32.32,2.25-1.11,4.31-3.19s3.47-4,3.15-4.34-2.25,1.11-4.31,3.19S857.39,221.26,857.72,221.58Z" transform="translate(-607.13 -4.59)"/><path class="cls-6" d="M865.09,214.14c.32.32,2.25-1.11,4.31-3.19s3.47-4,3.15-4.34-2.25,1.11-4.31,3.19S864.76,213.83,865.09,214.14Z" transform="translate(-607.13 -4.59)"/><path class="cls-6" d="M825.27,183.67c.27-5.88,17.78-5.68,17.78-5.68s.55,18.44-5.92,17.65c-5.51-.67-2.73-9.08-2.73-9.08S825,189.28,825.27,183.67Z" transform="translate(-607.13 -4.59)"/><path class="cls-9" d="M827.91,128.65l.81.81L823,135.2l-.81-.81Zm-1.82,2.64,1.81,1.82a2.5,2.5,0,0,1,.68,1.12,2,2,0,0,1,0,1.22,3,3,0,0,1-1.85,1.85,2.2,2.2,0,0,1-1.22,0,2.65,2.65,0,0,1-1.13-.69l-1.81-1.82.77-.76,1.84,1.84a1.12,1.12,0,0,0,1.24.29,1.59,1.59,0,0,0,.63-.41,1.72,1.72,0,0,0,.41-.62,1.15,1.15,0,0,0,0-.66,1.22,1.22,0,0,0-.33-.58l-1.84-1.84Z" transform="translate(-607.13 -4.59)"/><path class="cls-9" d="M834.86,135.51a3.2,3.2,0,0,1,.84,1.34,2.33,2.33,0,0,1-.05,1.43,3.7,3.7,0,0,1-.92,1.39l-3.67,3.66-.81-.81,3.71-3.69a2,2,0,0,0,.65-1.29,1.89,1.89,0,0,0-1.79-1.79,1.91,1.91,0,0,0-1.29.65l-3.7,3.69-.81-.81,3.68-3.66a3.65,3.65,0,0,1,1.4-.92,2.37,2.37,0,0,1,1.42,0A3.19,3.19,0,0,1,834.86,135.51Z" transform="translate(-607.13 -4.59)"/><path class="cls-9" d="M838.08,138.86l.8.81-5.76,5.74-.8-.81Zm.4.41,3.28,3.29-.76.77-3.29-3.3Z" transform="translate(-607.13 -4.59)"/><path class="cls-9" d="M844.34,145a4.27,4.27,0,0,1,.94,1.34,2.24,2.24,0,0,1,.15,1.29,2.29,2.29,0,0,1-.65,1.14h0a2.14,2.14,0,0,1-1.13.66,1.89,1.89,0,0,1-1.06-.12,6.89,6.89,0,0,1-1.12-.62l-.05,0,0,0,0,0,0,0a7.88,7.88,0,0,0-.86-.53,1.36,1.36,0,0,0-.67-.17.89.89,0,0,0-.64.3h0a1.09,1.09,0,0,0-.34,1,2.1,2.1,0,0,0,.68,1.15,2.54,2.54,0,0,0,.77.54,3.47,3.47,0,0,0,1,.29l-.19,1.1a4.25,4.25,0,0,1-.9-.24,3.42,3.42,0,0,1-.79-.39,3.18,3.18,0,0,1-.67-.54,4,4,0,0,1-.91-1.3,2.16,2.16,0,0,1-.12-1.27,2.34,2.34,0,0,1,.68-1.15h0a2.19,2.19,0,0,1,1.2-.68,1.83,1.83,0,0,1,1.07.17,8.48,8.48,0,0,1,1.16.72l.07,0,0,0,0,0a7.28,7.28,0,0,0,.8.48,1.33,1.33,0,0,0,.66.15A1,1,0,0,0,844,148h0a1.05,1.05,0,0,0,.31-1,2.44,2.44,0,0,0-.73-1.21,3.9,3.9,0,0,0-1-.71,3.21,3.21,0,0,0-1.15-.3l.11-1.12a4.14,4.14,0,0,1,1,.21,4,4,0,0,1,.93.46A5.11,5.11,0,0,1,844.34,145Z" transform="translate(-607.13 -4.59)"/><path class="cls-9" d="M847.45,148.27l.8.81-5.76,5.74-.8-.81Zm-4.6,5.36,3.29,3.31-.77.77-3.29-3.31Zm2.51-2.5,2.86,2.87-.77.77-2.86-2.88Zm2.48-2.47,3.29,3.31-.76.77-3.3-3.31Z" transform="translate(-607.13 -4.59)"/><path class="cls-9" d="M858.58,159.33a3,3,0,0,1,.79,1.32,2.47,2.47,0,0,1,0,1.45,3.39,3.39,0,0,1-.86,1.37l-1.64,1.62a3.29,3.29,0,0,1-1.36.86,2.56,2.56,0,0,1-1.45,0,2.91,2.91,0,0,1-1.32-.8,3,3,0,0,1-.8-1.32,2.51,2.51,0,0,1,0-1.46,3.36,3.36,0,0,1,.86-1.36l1.64-1.62a3.29,3.29,0,0,1,1.36-.86,2.56,2.56,0,0,1,1.45,0A2.9,2.9,0,0,1,858.58,159.33Zm-.8.79a1.76,1.76,0,0,0-.79-.47,1.61,1.61,0,0,0-.87,0,2.12,2.12,0,0,0-.83.54l-1.69,1.68a2.12,2.12,0,0,0-.54.83,1.52,1.52,0,0,0,0,.87,1.65,1.65,0,0,0,.46.79,1.76,1.76,0,0,0,.79.47,1.52,1.52,0,0,0,.87,0,2,2,0,0,0,.83-.53l1.69-1.68a2.12,2.12,0,0,0,.54-.83,1.52,1.52,0,0,0,0-.87A1.65,1.65,0,0,0,857.78,160.12Z" transform="translate(-607.13 -4.59)"/><path class="cls-9" d="M861.08,162l.91.91-1.11,4.18-1.22,5-.9-.91,1-3.9Zm3.53,3.54.9.91-5.16,1.22-.35.08-3.73.95-.9-.91,4.89-1.15.32-.07Z" transform="translate(-607.13 -4.59)"/><path class="cls-9" d="M861.42,173.83l-.8-.81,5.76-5.74.8.81Z" transform="translate(-607.13 -4.59)"/><path class="cls-9" d="M869.08,173.91,863.6,176l-.76-.76,5.76-5.73.79.79-4.32,4.29.3-.37,4.59-1.75.56.56-1.85,4.67-.29.21,4.32-4.29.78.78-5.76,5.74-.75-.76Z" transform="translate(-607.13 -4.59)"/><path class="cls-9" d="M874.9,175.84l.81.81-5.77,5.74-.8-.81Zm-4.6,5.36,3.29,3.31-.77.77L869.53,182Zm2.51-2.5,2.87,2.87-.77.77-2.86-2.88Zm2.48-2.47,3.3,3.31-.77.77-3.3-3.31Z" transform="translate(-607.13 -4.59)"/><path class="cls-9" d="M874.11,185l4,4.06-.76.77-4-4.07Zm6.61-3.35.8.81-5.28,5.27-.81-.81Z" transform="translate(-607.13 -4.59)"/><path class="cls-9" d="M883.94,184.91l.8.81L879,191.46l-.81-.81Zm-4.61,5.37,3.3,3.31-.77.76-3.3-3.31Zm2.52-2.51,2.86,2.87-.77.77-2.86-2.87Zm2.48-2.46,3.29,3.3-.77.77-3.29-3.31Z" transform="translate(-607.13 -4.59)"/><path class="cls-9" d="M888.76,189.76l.81.81-5.77,5.74-.8-.81Zm-2.08,2.78,1.92,1.94a2.6,2.6,0,0,1,.67,1.08,2.12,2.12,0,0,1,0,1.17,2.41,2.41,0,0,1-.67,1.08,2.68,2.68,0,0,1-1.08.66,2,2,0,0,1-1.16,0,2.5,2.5,0,0,1-1.08-.67l-1.93-1.93.77-.77,2,2a1.1,1.1,0,0,0,.52.3,1.05,1.05,0,0,0,.58,0,1.64,1.64,0,0,0,.57-.37,1.51,1.51,0,0,0,.37-.57,1,1,0,0,0,0-.59,1.09,1.09,0,0,0-.29-.52l-2-2ZM892,193l1,1-4.27,1.32-.62-1Z" transform="translate(-607.13 -4.59)"/><path class="cls-9" d="M784.58,170.57a1.09,1.09,0,0,1,.37.81,1.28,1.28,0,0,1-.41.83l-.41.4a1.26,1.26,0,0,1-.83.42,1.23,1.23,0,0,1-1.18-1.17,1.2,1.2,0,0,1,.41-.83l.41-.42a1.26,1.26,0,0,1,.83-.41A1.05,1.05,0,0,1,784.58,170.57Zm2.31-3.16.59.59-2.18,7.39-.59-.59Zm-2.83,3.68a.36.36,0,0,0-.26-.11.52.52,0,0,0-.28.15l-.48.48a.44.44,0,0,0-.14.27.34.34,0,0,0,.11.26.34.34,0,0,0,.25.11.4.4,0,0,0,.27-.14l.49-.48a.52.52,0,0,0,.15-.28A.34.34,0,0,0,784.06,171.09Zm5.69-.93a1.1,1.1,0,0,1,.37.81,1.21,1.21,0,0,1-.42.83l-.4.41a1.26,1.26,0,0,1-.84.42,1.25,1.25,0,0,1-1.17-1.18,1.18,1.18,0,0,1,.41-.83l.41-.41a1.22,1.22,0,0,1,.83-.41A1.08,1.08,0,0,1,789.75,170.16Zm-.52.53a.32.32,0,0,0-.26-.11.41.41,0,0,0-.28.15l-.48.48a.4.4,0,0,0-.14.27.29.29,0,0,0,.11.25.3.3,0,0,0,.25.11.36.36,0,0,0,.27-.14l.49-.48a.4.4,0,0,0,.14-.28A.31.31,0,0,0,789.23,170.69Z" transform="translate(-607.13 -4.59)"/><path class="cls-9" d="M794.72,175.13a3.4,3.4,0,0,1,.79,1.12,1.84,1.84,0,0,1,.13,1.07,1.82,1.82,0,0,1-.55,1h0a1.8,1.8,0,0,1-.94.54,1.63,1.63,0,0,1-.88-.09,5.38,5.38,0,0,1-.94-.52l0,0,0,0s0,0,0,0l0,0a8.26,8.26,0,0,0-.73-.44,1.25,1.25,0,0,0-.55-.14.75.75,0,0,0-.53.25h0a.89.89,0,0,0-.28.82,1.83,1.83,0,0,0,.57,1,2.21,2.21,0,0,0,.64.44,3,3,0,0,0,.85.25l-.15.91a4.45,4.45,0,0,1-.76-.19,3.61,3.61,0,0,1-.65-.33,3.07,3.07,0,0,1-.56-.45,3.3,3.3,0,0,1-.76-1.08,1.79,1.79,0,0,1-.1-1.06,2,2,0,0,1,.56-1h0a1.76,1.76,0,0,1,1-.57,1.57,1.57,0,0,1,.89.13,8.7,8.7,0,0,1,1,.6l.06,0,0,0,0,0a7.29,7.29,0,0,0,.66.4,1.14,1.14,0,0,0,.56.12.78.78,0,0,0,.52-.27h0a.88.88,0,0,0,.25-.84,2,2,0,0,0-.61-1,3.06,3.06,0,0,0-.83-.6,2.84,2.84,0,0,0-1-.25l.09-.93a3.22,3.22,0,0,1,.83.17,3.51,3.51,0,0,1,.78.38A4.9,4.9,0,0,1,794.72,175.13Z" transform="translate(-607.13 -4.59)"/><path class="cls-9" d="M798.71,176.44l.67.67-4.81,4.81-.67-.67Zm.19,2.87a1.74,1.74,0,0,1,.48.8,1.41,1.41,0,0,1-.07.88,2.5,2.5,0,0,1-.6.89l-.75.74a2.72,2.72,0,0,1-.89.62,1.39,1.39,0,0,1-.87.08,1.52,1.52,0,0,1-.78-.46,1.36,1.36,0,0,1-.4-.72,1.82,1.82,0,0,1,.06-.86l.73-.59a1.16,1.16,0,0,0-.29.44.72.72,0,0,0,0,.46,1.16,1.16,0,0,0,.28.45.93.93,0,0,0,.73.3,1.17,1.17,0,0,0,.76-.4l.74-.74a1.11,1.11,0,0,0,.39-.75.91.91,0,0,0-.31-.72,1,1,0,0,0-.45-.28.72.72,0,0,0-.46,0,1.22,1.22,0,0,0-.46.29l.67-.76a1.24,1.24,0,0,1,.78-.08A1.38,1.38,0,0,1,798.9,179.31Z" transform="translate(-607.13 -4.59)"/><path class="cls-9" d="M802.69,183.1a2.42,2.42,0,0,1,.67,1.1,2.17,2.17,0,0,1,0,1.21,2.82,2.82,0,0,1-.72,1.14l-1.36,1.36a2.72,2.72,0,0,1-1.13.71,2.08,2.08,0,0,1-1.21,0,2.57,2.57,0,0,1-1.11-.66,2.48,2.48,0,0,1-.66-1.1,2.08,2.08,0,0,1,0-1.21,2.71,2.71,0,0,1,.72-1.14l1.35-1.36a2.82,2.82,0,0,1,1.14-.72,2.17,2.17,0,0,1,1.21,0A2.48,2.48,0,0,1,802.69,183.1Zm-.66.66a1.5,1.5,0,0,0-.66-.39,1.26,1.26,0,0,0-.72,0,1.74,1.74,0,0,0-.7.45l-1.4,1.4a1.87,1.87,0,0,0-.44.69,1.3,1.3,0,0,0,0,.73,1.42,1.42,0,0,0,.39.66,1.51,1.51,0,0,0,.65.39,1.3,1.3,0,0,0,.73,0,1.75,1.75,0,0,0,.69-.45l1.4-1.4a1.78,1.78,0,0,0,.45-.69,1.3,1.3,0,0,0,0-.73A1.42,1.42,0,0,0,802,183.76Z" transform="translate(-607.13 -4.59)"/><path class="cls-9" d="M806.27,183.78l1.62,1.62-.39.38-1.08-1.08-.3,2a1.94,1.94,0,0,1-.14.5,1.34,1.34,0,0,1-.26.38h0a1.13,1.13,0,0,1-.5.31.88.88,0,0,1-.53,0,1.37,1.37,0,0,1-.52-.35,1.1,1.1,0,0,1-.31-.49,1,1,0,0,1,0-.55,1.51,1.51,0,0,1,.28-.57h0l.41.42h0a.67.67,0,0,0-.16.42.64.64,0,0,0,.18.39.58.58,0,0,0,.38.19.48.48,0,0,0,.37-.16h0a.85.85,0,0,0,.18-.28,1.34,1.34,0,0,0,.11-.37l.33-2.33Z" transform="translate(-607.13 -4.59)"/><path class="cls-9" d="M829.08,210.35l.65.65-4.67,4.64-.65-.65Zm-1.48,2.13,1.46,1.47a2.15,2.15,0,0,1,.56.91,1.76,1.76,0,0,1,0,1,2.14,2.14,0,0,1-.58.92,2.21,2.21,0,0,1-.92.57,1.76,1.76,0,0,1-1,0,2.06,2.06,0,0,1-.91-.56l-1.46-1.47.62-.62,1.48,1.5a1,1,0,0,0,.47.27.91.91,0,0,0,.54,0,1.45,1.45,0,0,0,.84-.84.93.93,0,0,0,0-.52,1,1,0,0,0-.27-.48L827,213.1Z" transform="translate(-607.13 -4.59)"/><path class="cls-9" d="M833.08,214.37l.65.66-4.67,4.64-.65-.66Zm-1.69,2.25,1.56,1.57a2,2,0,0,1,.53.87,1.62,1.62,0,0,1,0,.95,2.25,2.25,0,0,1-.54.87,2.08,2.08,0,0,1-.88.53,1.67,1.67,0,0,1-.94,0,2,2,0,0,1-.88-.55l-1.55-1.56.62-.62,1.58,1.59a.82.82,0,0,0,.42.24.8.8,0,0,0,.48,0,1.27,1.27,0,0,0,.45-.3,1.18,1.18,0,0,0,.31-.45.88.88,0,0,0,0-.48.89.89,0,0,0-.24-.42l-1.58-1.59Zm4.3.38.77.77L833,218.83l-.5-.8Z" transform="translate(-607.13 -4.59)"/><path class="cls-9" d="M837.27,218.59l.65.65-4.66,4.64-.65-.65Zm1.54,1.44a1.77,1.77,0,0,1,.46.78,1.5,1.5,0,0,1-.07.86,2.47,2.47,0,0,1-.59.85l-.73.72a2.41,2.41,0,0,1-.86.6,1.4,1.4,0,0,1-.85.08,1.56,1.56,0,0,1-.76-.45,1.38,1.38,0,0,1-.38-.7,1.74,1.74,0,0,1,.06-.84l.71-.57a1.1,1.1,0,0,0-.28.43.77.77,0,0,0,0,.45,1.1,1.1,0,0,0,.28.43.86.86,0,0,0,.7.3,1.11,1.11,0,0,0,.74-.39l.73-.71a1.16,1.16,0,0,0,.38-.73.9.9,0,0,0-.31-.7,1,1,0,0,0-.43-.28.77.77,0,0,0-.45,0,1.05,1.05,0,0,0-.44.29l.65-.74a1.18,1.18,0,0,1,.76-.08A1.42,1.42,0,0,1,838.81,220Z" transform="translate(-607.13 -4.59)"/><path class="cls-9" d="M842.18,220.82l.65.65-4.68,4.66-.65-.66Zm.18,2.79a1.67,1.67,0,0,1,.46.78,1.4,1.4,0,0,1-.07.85,2.47,2.47,0,0,1-.59.85l-.72.72a2.53,2.53,0,0,1-.87.6,1.37,1.37,0,0,1-.84.08A1.47,1.47,0,0,1,839,227a1.28,1.28,0,0,1-.38-.7,1.63,1.63,0,0,1,0-.84l.71-.57a1.1,1.1,0,0,0-.28.43.69.69,0,0,0,0,.45,1,1,0,0,0,.27.43.87.87,0,0,0,.7.3,1.16,1.16,0,0,0,.75-.38l.72-.72a1.11,1.11,0,0,0,.38-.73.94.94,0,0,0-.3-.7,1,1,0,0,0-.44-.27.69.69,0,0,0-.45,0,1.16,1.16,0,0,0-.44.29l.65-.74a1.25,1.25,0,0,1,.76-.08A1.44,1.44,0,0,1,842.36,223.61Z" transform="translate(-607.13 -4.59)"/><path class="cls-9" d="M844.38,225.73l.65.66-3.33,3.31-.65-.65Zm2,2,.65.66-2,2a2.93,2.93,0,0,1-.86.6,1.45,1.45,0,0,1-.84.08,1.47,1.47,0,0,1-.75-.44,1.43,1.43,0,0,1-.39-.71,1.71,1.71,0,0,1,.07-.86l.7-.58a1,1,0,0,0-.3.65,1,1,0,0,0,.32.67.9.9,0,0,0,.68.3,1.1,1.1,0,0,0,.72-.37Zm2,2,.65.66-2,2a2.53,2.53,0,0,1-.87.6,1.4,1.4,0,0,1-.85.08,1.69,1.69,0,0,1-.77-.46,1.35,1.35,0,0,1-.38-.75,1.85,1.85,0,0,1,.09-.92l.78-.51a1,1,0,0,0-.36.69.85.85,0,0,0,.28.66,1,1,0,0,0,.7.32,1.13,1.13,0,0,0,.73-.36Z" transform="translate(-607.13 -4.59)"/><circle class="cls-7" cx="903.82" cy="249.48" r="11.11" transform="translate(-636.83 157.25) rotate(-10.07)"/><circle class="cls-10" cx="903.82" cy="249.48" r="8.51" transform="translate(-581.49 573.42) rotate(-35.94)"/></g></svg>
