<svg xmlns="http://www.w3.org/2000/svg" width="430" height="430" style="width:100%;height:100%;transform:translate3d(0,0,0);content-visibility:visible" viewBox="0 0 430 430"><defs><clipPath id="a"><path d="M0 0h430v430H0z"/></clipPath><clipPath id="f"><path d="M0 0h430v430H0z"/></clipPath><clipPath id="i"><path d="M0 0h430v430H0z"/></clipPath><clipPath id="h"><path d="M0 0h430v430H0z"/></clipPath><clipPath id="g"><path d="M0 0h430v430H0z"/></clipPath><clipPath id="b"><path d="M0 0h430v430H0z"/></clipPath><clipPath id="e"><path d="M0 0h430v430H0z"/></clipPath><clipPath id="d"><path d="M0 0h430v430H0z"/></clipPath><clipPath id="c"><path d="M0 0h430v430H0z"/></clipPath></defs><g clip-path="url(#a)"><g clip-path="url(#b)" style="display:none"><g clip-path="url(#c)" style="display:none"><g style="display:none"><path class="primary"/><path class="primary" style="mix-blend-mode:multiply"/></g><path class="secondary" style="display:none"/><g style="display:none"><path class="secondary"/><path class="secondary" style="mix-blend-mode:multiply"/></g><path class="tertiary" style="display:none"/><path class="secondary" style="display:none"/><path class="tertiary" style="display:none"/><path class="primary" style="display:none"/><path class="primary" style="display:none"/><g style="display:none"><path class="quaternary"/><path class="tertiary"/></g></g><g clip-path="url(#d)" style="display:none"><g style="display:none"><path class="primary"/><path class="primary" style="mix-blend-mode:multiply"/></g><path class="secondary" style="display:none"/><g style="display:none"><path class="secondary"/><path class="secondary" style="mix-blend-mode:multiply"/></g><path class="tertiary" style="display:none"/><path class="secondary" style="display:none"/><path class="tertiary" style="display:none"/><path class="primary" style="display:none"/><path class="primary" style="display:none"/><g style="display:none"><path class="quaternary"/><path class="tertiary"/></g></g><g clip-path="url(#e)" style="display:none"><g style="display:none"><path class="primary"/><path class="primary" style="mix-blend-mode:multiply"/></g><path class="secondary" style="display:none"/><g style="display:none"><path class="secondary"/><path class="secondary" style="mix-blend-mode:multiply"/></g><path class="tertiary" style="display:none"/><path class="secondary" style="display:none"/><path class="tertiary" style="display:none"/><path class="primary" style="display:none"/><path class="primary" style="display:none"/><g style="display:none"><path class="quaternary"/><path class="tertiary"/></g></g></g><g clip-path="url(#f)" style="display:block"><g clip-path="url(#g)" style="display:block" transform="matrix(-1 0 0 1 430 -1)"><g fill="#F24C00" style="display:block"><path d="M218.064 119.363c-.356-.012-2.98-.088-4.617.032-4.227.31-16.485 3.063-26.408 18.664l-29.389 43.734-57.87 23.845s3.82 31.056 34.4 18.456l42.429-18.17 49.472-69.528" class="primary"/><path fill-opacity=".5" d="M105.856-105.954c-.356 0-2.981.016-4.613.193-4.214.457-16.368 3.636-25.741 19.574L47.658-41.454l-57.002 25.85S-4.443 15.3 25.678 1.64L67.447-18l47.016-71.212" class="primary" style="mix-blend-mode:multiply" transform="rotate(2 -6292.252 3220.896)"/></g><g opacity="0" style="display:block"><path fill="#4BB3FD" d="m240.962 225.431-59.407-.574-.314 8.995 28.587 32.267 30.829-31.943.305-8.745z" class="secondary" opacity="1"/></g><g fill="#4BB3FD" style="display:block"><path d="m245.797 227.743 10.015 64.074 46.179 48.63 17.586 16.872s-30.354 33.327-36.271 39.776c-15.168-2.726-7.101-30.099-7.101-30.099l-55.856-53.683-37.994-87.391" class="secondary"/><path fill-opacity=".5" d="m130.297 7.743 10.015 64.074 46.179 48.63 17.586 16.872s-30.354 33.327-36.271 39.776c-15.168-2.726-7.101-30.099-7.101-30.099l-55.856-53.683L66.855 5.922" class="secondary" style="mix-blend-mode:multiply" transform="translate(115.5 220)"/></g><path fill="#3A3347" d="m187.04 120.974 17.037 16.345s-30.354 33.327-36.271 39.776c-15.168-2.726-7.101-30.099-7.101-30.099l-.487-.468" class="tertiary" style="display:block" transform="translate(115.5 220)"/><path fill="#4BB3FD" d="m182.283 226.38-29.162 75.621 2.433 76.746s-24.179 9.003-16.371 24.111c11.567 0 44.727.009 53.479.009.338-14.242.324-25.585.324-25.585l.116-68.249 52.915-81.281" class="secondary" style="display:block"/><path fill="#3A3347" d="m155.473 376.179.081 2.568s-24.179 9.003-16.371 24.111c11.567 0 44.727.009 53.479.009.338-14.242.324-25.585.324-25.585l.005-2.748" class="tertiary" style="display:block"/><path fill="#F24C00" d="M1129.031 417.37c-15.906 0-32 13.13-32 31.99v75.71h64v-75.71c0-16.735-15.031-31.99-32-31.99z" class="primary" style="display:block" transform="rotate(2 9207.996 -25835.61)"/><path fill="#F24C00" d="M106.356-105.954c8.269.329 15.519 4.454 18.113 6.829 4.156 3.5 9.656 10.625 12.367 15.438l21.481 51.146s.046 35.361 0 48.014c0 13.027-7.317 28.777-31.15 21.503L127.584-25l-20.709-47.087" class="primary" style="display:block" transform="rotate(2 -6299.413 3220.774)"/><g style="display:block"><path fill="#F9C9C0" d="M216.33 95.437h-22.37c-3.463 0-6.297-2.833-6.297-6.296V53.89c0-11.58 9.474-21.052 21.053-21.052h7.614c11.58 0 21.053 9.473 21.053 21.052v20.494c0 11.579-9.474 21.052-21.053 21.052z" class="quaternary"/><path fill="#3A3347" d="M186.953 43.78c-.468 1.172.375 2.45 1.636 2.45h17.838c4.1 0 7.43 3.32 7.43 7.43 0 2.05.83 3.91 2.18 5.25a7.374 7.374 0 0 0 5.25 2.18h6.77c3.65 0 6.61 2.96 6.61 6.6h2.125a2.106 2.106 0 0 0 2.105-2.105V51.56c0-11.583-9.477-21.06-21.06-21.06h-11.33c-8.845 0-16.455 5.522-19.554 13.28z" class="tertiary"/></g></g><g clip-path="url(#h)" style="display:none"><g style="display:none"><path class="primary"/><path class="primary" style="mix-blend-mode:multiply"/></g><path class="secondary" style="display:none"/><g style="display:none"><path class="secondary"/><path class="secondary" style="mix-blend-mode:multiply"/></g><path class="tertiary" style="display:none"/><path class="secondary" style="display:none"/><path class="tertiary" style="display:none"/><path class="primary" style="display:none"/><path class="primary" style="display:none"/><g style="display:none"><path class="quaternary"/><path class="tertiary"/></g></g><g clip-path="url(#i)" style="display:none"><g style="display:none"><path class="primary"/><path class="primary" style="mix-blend-mode:multiply"/></g><path class="secondary" style="display:none"/><g style="display:none"><path class="secondary"/><path class="secondary" style="mix-blend-mode:multiply"/></g><path class="tertiary" style="display:none"/><path class="secondary" style="display:none"/><path class="tertiary" style="display:none"/><path class="primary" style="display:none"/><path class="primary" style="display:none"/><g style="display:none"><path class="quaternary"/><path class="tertiary"/></g></g></g></g></svg>