<svg width="466" height="478" viewBox="0 0 466 478" fill="none" xmlns="http://www.w3.org/2000/svg">
<path opacity="0.9" d="M233.668 53.8215C281.145 53.1404 323.91 74.5332 361.176 103.904C407.281 140.24 467.368 178.289 465.976 236.91C464.581 295.696 405.566 335.316 354.968 365.425C314.917 389.259 267.692 376.14 221.487 382.4C155.71 391.313 83.5318 450.756 31.8181 409.212C-19.3377 368.117 2.45339 283.631 19.8669 220.431C33.4527 171.122 74.5834 138.905 114.966 107.436C150.554 79.7036 188.525 54.4691 233.668 53.8215Z" fill="url(#paint0_linear)"/>
<path d="M317.259 202.853L370.259 324.353C348.659 324.353 317.259 293.019 304.259 277.353C303.759 282.186 303.359 297.153 305.759 318.353C308.759 344.853 313.759 359.353 310.259 374.853C307.459 387.253 304.092 414.019 302.759 425.853C308.759 458.253 305.259 471.686 302.759 474.353C160.759 478.353 96.2586 478.853 93.2586 474.353C90.2586 469.853 88.7586 436.853 87.7586 410.853C86.7586 384.853 77.7586 362.353 73.2586 335.353C69.6586 313.753 77.4253 260.019 81.7586 235.853C98.4253 219.353 132.959 194.253 137.759 225.853C143.759 265.353 169.259 290.353 194.759 302.353C220.259 314.353 237.759 303.353 255.759 275.853C270.159 253.853 276.759 203.019 278.259 180.353L317.259 202.853Z" fill="#F3DFC6"/>
<path d="M136.759 221.853C137.559 207.453 161.092 176.519 172.759 162.853C194.259 170.519 236.959 186.553 235.759 189.353C234.259 192.853 228.759 208.853 230.259 221.853C231.759 234.853 269.759 226.853 271.759 249.853C273.759 272.853 246.259 295.853 230.259 310.353C214.259 324.853 190.759 314.353 164.759 300.353C138.759 286.353 135.759 239.853 136.759 221.853Z" fill="#F8A383"/>
<path d="M193.759 243.852C198.559 232.652 191.759 217.852 187.759 211.852C187.259 211.079 185.759 211.353 192.259 205.853C198.759 200.353 206.259 216.853 212.759 222.353C217.959 226.753 221.259 212.186 222.259 204.353C190.259 196.853 175.259 172.352 169.759 166.352C164.259 160.352 146.259 194.352 137.759 217.852C129.259 241.352 146.759 267.352 151.759 261.852C156.759 256.352 163.759 250.352 177.759 255.852C191.759 261.352 187.759 257.852 193.759 243.852Z" fill="#E27554"/>
<path d="M137.259 42.8524C162.059 3.65244 196.259 -1.14756 210.259 1.35244C221.059 4.15237 227.759 7.85248 229.759 9.35254C244.759 10.3525 250.259 11.3525 271.259 24.3525C292.259 37.3525 306.259 61.8525 306.759 107.853C307.259 153.853 274.259 238.353 268.259 248.853C262.259 259.353 226.259 238.353 226.259 233.853C226.259 229.353 229.259 207.853 229.759 203.853C230.259 199.853 261.259 155.853 268.259 126.853C275.259 97.8525 250.259 75.8525 222.759 72.8525C195.259 69.8525 165.759 135.353 164.259 159.853C162.759 184.353 181.759 216.353 186.759 233.853C191.759 251.353 186.759 249.353 174.259 241.353C161.759 233.353 147.259 240.853 140.259 238.353C133.259 235.853 137.259 220.353 118.759 159.853C100.259 99.3525 106.259 91.8524 137.259 42.8524Z" fill="#252E55"/>
<path d="M162.759 133.353C155.559 103.353 188.425 76.8526 205.759 67.3526C218.425 66.8526 246.859 67.3526 259.259 73.3526C274.759 80.8526 268.759 114.853 266.259 141.853C263.759 168.853 245.759 207.353 213.259 202.353C180.759 197.353 171.759 170.853 162.759 133.353Z" fill="#F8A383"/>
<path fill-rule="evenodd" clip-rule="evenodd" d="M217.631 85.6672C208.51 94.2597 194.704 109.073 192.259 118.853C191.775 120.787 191.177 122.912 190.536 125.19C186.535 139.407 180.847 159.616 190.759 176.853C196.022 186.005 201.494 192.645 205.211 197.155C206.65 198.901 207.827 200.329 208.626 201.459C183.835 195.645 174.058 175.733 166.35 147.505C169.15 124.497 176.886 95.1622 185.848 81.5365C192.853 75.3222 200.126 70.4398 205.759 67.3526C218.425 66.8526 246.859 67.3526 259.259 73.3526C272.765 79.888 269.946 106.545 267.344 131.159C267.201 132.513 267.058 133.861 266.919 135.199C266.382 133.669 265.825 132.017 265.243 130.289C262.035 120.767 258.046 108.93 252.259 102.353C242.872 91.6864 235.307 84.6608 226.144 82.829C223.038 82.208 219.937 83.4953 217.631 85.6672Z" fill="#E27554"/>
<path d="M151.259 64.8528C139.659 73.2528 133.759 108.686 132.259 125.353C152.259 122.153 170.925 130.686 177.759 135.353C182.759 131.853 193.259 98.8525 199.259 90.3525C205.259 81.8525 231.759 71.3525 238.259 59.3525C243.459 49.7525 207.092 68.0192 188.259 78.3525C203.759 43.8525 212.259 55.8529 209.259 49.8529C206.259 43.8529 194.259 47.3529 188.259 49.8529C182.259 52.3529 185.759 54.3528 172.759 52.8528C159.759 51.3528 165.759 54.3528 151.259 64.8528Z" fill="#F8A383"/>
<path d="M231.259 79.3526C227.659 76.5526 227.425 73.186 227.759 71.8526C231.359 69.0527 245.259 75.686 251.759 79.3526C254.925 81.3526 261.059 84.1526 260.259 79.3526C259.259 73.3527 239.259 59.8525 236.259 55.8525C233.259 51.8525 221.759 47.3526 220.759 40.8526C219.959 35.6526 227.425 38.686 231.259 40.8526C237.659 38.8526 260.592 53.686 271.259 61.3526C284.259 62.8526 291.759 81.3526 295.259 97.8526C298.059 111.053 302.425 122.686 304.259 126.853L275.259 146.853C268.759 141.853 266.259 132.853 263.759 122.853C261.259 112.853 263.759 107.353 258.259 96.3526C252.759 85.3526 235.759 82.8526 231.259 79.3526Z" fill="#F8A383"/>
<path d="M46.7586 228.352C54.3586 201.152 80.5919 192.019 92.7586 190.852C112.759 164.852 125.759 135.352 129.759 123.852C161.759 114.652 178.425 132.352 182.759 142.352C182.092 148.186 178.759 161.952 170.759 170.352C160.759 180.852 142.259 223.852 140.259 228.352C138.259 232.852 134.759 266.352 117.759 301.852C100.759 337.352 65.2586 328.352 46.7586 308.352C28.2586 288.352 37.2586 262.352 46.7586 228.352Z" fill="#E1CCB4"/>
<path d="M264.259 153.853C270.659 137.453 294.925 127.019 306.759 124.853C310.925 132.019 325.159 154.053 348.759 184.853C378.259 223.353 405.759 240.853 421.259 259.853C436.759 278.853 428.759 308.353 421.259 323.353C413.759 338.353 366.259 329.853 359.759 323.353C353.259 316.853 313.759 214.853 306.759 200.353C301.159 188.753 276.092 164.519 264.259 153.853Z" fill="#E1CCB4"/>
<path d="M219.259 109.353C216.059 105.753 207.925 103.186 204.259 102.353C205.259 103.353 210.759 106.353 212.759 107.353C214.359 108.153 217.759 109.019 219.259 109.353Z" fill="#252E55"/>
<path d="M257.259 107.853C252.859 107.853 247.425 111.853 245.259 113.853C247.092 113.186 251.159 111.653 252.759 110.853C254.759 109.853 257.259 108.353 257.259 107.853Z" fill="#252E55"/>
<path d="M219.259 109.353C216.059 105.753 207.925 103.186 204.259 102.353C205.259 103.353 210.759 106.353 212.759 107.353C214.359 108.153 217.759 109.019 219.259 109.353Z" stroke="#252E55"/>
<path d="M257.259 107.853C252.859 107.853 247.425 111.853 245.259 113.853C247.092 113.186 251.159 111.653 252.759 110.853C254.759 109.853 257.259 108.353 257.259 107.853Z" stroke="#252E55"/>
<path d="M56.7586 230.353C58.3586 221.553 80.7586 202.019 91.7586 193.353C84.5919 200.853 68.6585 218.253 62.2585 227.853C55.8585 237.453 50.2585 262.853 48.2586 274.353C47.2586 269.353 54.7586 241.353 56.7586 230.353Z" fill="#BE9767"/>
<path d="M417.259 274.353C408.859 242.753 383.759 222.519 372.259 216.353L398.759 242.353L417.259 274.353Z" fill="#BE9767"/>
<path d="M108.759 403.353C117.425 405.686 139.459 409.653 158.259 406.853C150.092 410.519 128.759 414.953 108.759 403.353Z" fill="#BE9767"/>
<path d="M228.259 406.853C238.759 407.853 263.559 409.753 278.759 409.353C268.425 411.019 243.859 412.853 228.259 406.853Z" fill="#BE9767"/>
<path d="M136.259 431.353C137.759 431.853 166.259 435.853 211.259 429.353C196.425 433.353 160.659 439.353 136.259 431.353Z" fill="#BE9767"/>
<path d="M260.759 440.353C255.592 441.686 243.759 444.353 237.759 444.353C243.592 445.019 256.359 445.153 260.759 440.353Z" fill="#BE9767"/>
<path d="M308.259 381.853C304.425 388.353 296.159 401.753 293.759 403.353C298.592 401.353 308.259 394.253 308.259 381.853Z" fill="#BE9767"/>
<defs>
<linearGradient id="paint0_linear" x1="0" y1="53.8057" x2="360.369" y2="507.676" gradientUnits="userSpaceOnUse">
<stop stop-color="#4BCCC4"/>
<stop offset="0.0833333" stop-color="#4BCAC6"/>
<stop offset="0.335703" stop-color="#4CC6CB"/>
<stop offset="1" stop-color="#4EB9DA"/>
</linearGradient>
</defs>
</svg>
